PathFileType	4	(X/Y/Z)	Run_500 03
DataRate	CameraRate	NumFrames	NumMarkers	Units	OrigDataRate	OrigDataStartFrame	OrigNumFrames
100	100	6	42	mm	100	103	128
Frame#	Time	RASI			LPSI			RPSI			RTH1			RTH2			RTH3			LTH1			LTH2			LTH3			RTB1			RTB2			RTB3			LTB1			LTB2			LTB3			RCAL			RTOE			RMT5			LCAL			LTOE			LMT5			LACR			RACR			CLAV			C7			RUA1			RUA2			RUA3			RLEL			RMEL			LUA1			LUA2			LUA3			LLEL			LMEL			RFAsuperior			RFAradius			RFAulna			LFAsuperior			LFAradius			LFAulna			LASI			
		X1	Y1	Z1	X2	Y2	Z2	X3	Y3	Z3	X4	Y4	Z4	X5	Y5	Z5	X6	Y6	Z6	X7	Y7	Z7	X8	Y8	Z8	X9	Y9	Z9	X10	Y10	Z10	X11	Y11	Z11	X12	Y12	Z12	X13	Y13	Z13	X14	Y14	Z14	X15	Y15	Z15	X16	Y16	Z16	X17	Y17	Z17	X18	Y18	Z18	X19	Y19	Z19	X20	Y20	Z20	X21	Y21	Z21	X22	Y22	Z22	X23	Y23	Z23	X24	Y24	Z24	X25	Y25	Z25	X26	Y26	Z26	X27	Y27	Z27	X28	Y28	Z28	X29	Y29	Z29	X30	Y30	Z30	X31	Y31	Z31	X32	Y32	Z32	X33	Y33	Z33	X34	Y34	Z34	X35	Y35	Z35	X36	Y36	Z36	X37	Y37	Z37	X38	Y38	Z38	X39	Y39	Z39	X40	Y40	Z40	X41	Y41	Z41	X42	Y42	Z42	

93	1.31	761.531547	997.2883	-200.827612	575.3218460000001	1085.347083	-357.557505	586.42879	1089.054241	-273.183068	662.530635	875.321744	-135.063486	666.653476	728.930481	-142.540556	562.829844	653.638471	-154.971996	708.617719	902.29035	-509.92192	813.04131	814.925219	-487.020047	791.004361	662.884698	-484.312475	417.567458	484.232605	-211.989361	311.53187	538.56399	-180.41833	219.436952	506.143035	-247.880266	916.203363	465.105856	-426.155799	868.884093	375.823857	-485.616343	945.070862	261.285919	-418.456544	112.293174	640.242644	-294.835353	44.978601	416.822249	-281.539836	5.436136	461.656201	-206.156921	857.194273	95.178854	-375.823911	1083.400087	128.533472	-410.765399	1053.619239	67.573954	-473.556951	723.581063	1520.261263	-532.883964	754.74935	1515.031103	-196.020017	804.478616	1483.565707	-348.841893	670.3883499999999	1560.906872	-375.86345	711.730493	1417.854773	-98.008431	631.92572	1345.514713	-100.704007	683.1703659999999	1309.747141	-50.842822	671.499632	1216.662571	-12.228575	625.966799	1192.104689	-77.23802000000001	645.1394780000001	1456.055608	-628.32094	562.317899	1401.304853	-620.492576	590.033611	1367.14224	-691.177259	558.872753	1295.273596	-742.275789	499.766189	1282.544928	-692.33281	725.427958	1154.484525	-15.9627	890.084376	1070.731445	-104.436716	849.206719	1018.809964	-76.504152	605.335299	1175.877063	-722.448046	680.283428	1072.084945	-622.508838	629.332977	1045.45244	-656.742082	749.3072550000001	1017.093113	-448.602712	
94	1.32	762.322256	993.094291	-201.883921	572.910403	1078.447733	-357.687049	585.614723	1080.97792	-274.426682	667.819333	868.911258	-134.807416	677.572636	722.372703	-140.55742	577.211155	643.380572	-151.613068	705.932724	893.269703	-510.049449	809.9159540000001	806.366358	-490.416014	785.259193	654.074883	-484.131586	434.734253	481.961581	-209.284402	332.291276	543.561066	-179.050533	239.486685	517.865402	-248.122858	905.097273	453.119391	-426.981234	855.13572	364.59379	-485.730867	927.553782	248.259579	-417.693018	140.435646	659.032465	-296.046967	62.16383	439.040172	-282.270188	27.493818	485.325164	-208.303255	832.392186	89.374279	-372.961876	1060.753437	109.638144	-409.404722	1026.075689	54.65982	-474.796973	724.79039	1510.467715	-536.52652	751.591894	1508.912922	-197.442346	803.8530909999999	1477.043342	-350.275661	670.19467	1553.838751	-379.490283	706.44025	1412.336969	-99.569119	626.1584350000001	1341.611331	-102.259853	676.62771	1304.842698	-51.681078	661.9643	1213.017727	-12.322388	615.644017	1189.990761	-76.966818	650.148499	1442.783689	-634.417238	568.762743	1385.243623	-628.266719	599.953108	1351.812565	-698.0491	573.358967	1278.930187	-749.333603	512.122567	1264.533855	-701.241049	711.580901	1147.097128	-13.561648	871.409801	1049.572849	-97.049756	826.477519	1001.286037	-69.118291	623.730052	1161.754849	-726.222445	699.498252	1063.496601	-621.799818	651.048796	1033.854609	-656.984824	747.7416009999999	1011.389383	-451.131985	
95	1.33	762.6576240000001	987.7838	-203.312159	570.837834	1071.223935	-358.631092	584.385621	1072.518844	-275.742623	673.025362	861.588627	-134.089853	689.46027	715.1414140000001	-138.469217	593.372102	631.828474	-147.827322	702.427958	884.151819	-511.453148	806.238062	798.522226	-494.553791	778.951497	644.6464089999999	-483.783747	455.099355	478.412934	-207.037315	356.037076	545.716401	-177.319644	263.100745	526.5053339999999	-248.089906	893.364516	440.041824	-425.985431	840.344119	353.067778	-484.365484	903.7686660000001	234.456929	-412.49868	171.246082	673.665903	-296.162367	83.397783	456.843241	-282.077495	52.774374	504.157947	-209.059726	796.611799	84.818926	-368.936798	1028.194942	91.693995	-403.687605	988.680329	47.278413	-474.312134	726.092625	1500.120081	-539.891914	747.508188	1502.07054	-198.448219	803.610645	1469.415868	-351.356518	669.851002	1545.258369	-382.521367	700.538212	1405.333108	-100.887581	619.903548	1336.360966	-104.174711	669.109523	1298.687462	-52.408585	651.6235349999999	1208.409105	-12.627733	604.984079	1186.95149	-77.104451	656.079833	1428.143387	-640.711213	576.180439	1367.794784	-636.542893	611.55074	1335.304439	-705.093218	589.7923019999999	1261.634953	-756.286808	526.578477	1245.531225	-710.436737	697.1521760000001	1139.350063	-11.317852	850.670778	1028.686729	-88.958353	802.323893	984.10821	-60.856512	644.052576	1147.351128	-729.1600539999999	720.2246730000001	1055.138618	-620.060222	674.6795090000001	1022.534045	-656.181741	746.433497	1003.80236	-453.462167	
96	1.34	762.218167	981.295344	-205.696025	569.337555	1064.339174	-360.23705	581.970376	1064.193751	-276.680782	678.1887850000001	853.199891	-133.460404	702.148882	707.766644	-136.73303	611.294453	619.575076	-144.165027	697.683883	875.7153479999999	-513.615132	801.140087	790.564748	-498.235312	772.463447	636.1671	-484.008606	478.714037	473.956736	-205.1072	382.428315	545.188508	-175.280133	289.839078	531.94273	-247.541619	880.960787	428.124344	-422.727355	824.087125	343.800757	-481.022098	874.134869	222.806088	-403.496683	204.298389	683.87112	-294.830972	108.870662	469.969314	-281.798704	79.73860999999999	518.028369	-208.286357	752.098283	81.80297400000001	-363.128482	986.686565	79.171852	-397.236412	943.138688	46.059365	-473.004562	727.585152	1489.684395	-543.24937	743.2646140000001	1494.571244	-199.312105	804.076024	1460.724218	-351.965534	669.276162	1535.612896	-385.167041	694.2594319999999	1397.313318	-102.236574	613.284073	1330.029571	-106.457363	660.667694	1291.898904	-53.169146	640.35599	1203.064738	-13.357414	594.013236	1183.107638	-77.891987	663.284794	1412.684329	-646.755685	584.832428	1349.580198	-645.320252	625.092527	1318.102483	-711.6630259999999	608.268905	1243.740722	-762.487524	543.501635	1225.717478	-719.447582	681.919838	1131.528386	-9.37964	828.180334	1008.464359	-80.417627	777.052091	967.948974	-51.753617	666.320298	1133.202348	-730.828806	742.338068	1047.242889	-617.19892	700.13965	1011.929671	-654.5351010000001	745.515948	994.2121100000001	-456.204842	
97	1.35	760.49074	974.034286	-209.23474	567.798363	1058.565487	-361.753618	578.041767	1056.651487	-277.249209	683.957748	844.3159889999999	-133.55957	715.561248	701.3639429999999	-135.805141	630.933301	607.986389	-141.206018	691.6148459999999	869.062595	-515.637194	794.617182	782.677445	-500.809483	765.969939	629.8355749999999	-484.676743	505.556376	469.218669	-203.609818	411.341044	542.5633340000001	-173.036854	319.330866	534.242263	-246.391471	867.139888	418.939544	-418.169873	805.253969	338.546758	-476.671927	840.608251	215.220798	-394.016422	238.865173	689.509472	-291.811448	138.332228	477.953226	-281.670996	108.436729	526.355369	-206.561879	703.449057	80.892562	-356.485664	939.785251	73.230434	-392.756627	893.490128	48.098202	-471.228223	729.450024	1479.684696	-546.830778	739.660945	1486.923018	-200.1168	805.1974	1451.657282	-351.683907	668.635824	1526.006589	-387.726115	687.861862	1389.374919	-103.814161	606.436282	1323.20385	-109.120369	651.516422	1285.351497	-54.313136	628.0899449999999	1197.600805	-14.74449	582.759531	1178.841153	-79.61296900000001	671.8258499999999	1397.72135	-651.7944230000001	595.105718	1331.834374	-654.337129	640.5556309999999	1301.168285	-716.879986	628.73927	1226.00199	-767.17589	562.805265	1205.60323	-727.483531	665.539769	1124.207277	-7.914112	804.326746	989.40798	-72.131226	750.943939	953.6971559999999	-42.098407	690.421981	1119.940379	-730.7819050000001	765.5451420000001	1040.297611	-613.0234799999999	727.222278	1002.454311	-651.979742	744.4714310000001	983.167563	-459.785842	
98	1.36	757.123036	966.942569	-213.244732	565.178077	1054.237273	-362.192447	573.276662	1050.696902	-277.518349	690.722854	836.623486	-134.582711	729.855476	697.285705	-135.909262	652.492913	598.880078	-139.158471	684.680596	864.756764	-516.863081	787.168859	775.92218	-501.978433	758.554337	625.206411	-485.094345	535.489736	464.958384	-203.139559	442.710524	538.683654	-170.769273	351.114987	533.6811740000001	-244.800232	850.626922	411.788068	-414.131219	782.842268	336.219216	-472.934407	805.115379	210.980967	-387.435938	273.423076	690.839979	-287.062866	170.903635	480.290774	-281.524971	139.549088	528.111447	-204.712973	654.714847	82.220601	-350.925638	891.3721389999999	71.464708	-390.568192	843.519676	49.983251	-469.212098	731.862044	1470.71951	-550.322233	736.9809289999999	1480.091175	-200.840202	806.441287	1443.415484	-350.315599	668.343912	1517.959346	-390.319677	681.636637	1382.934871	-105.571865	599.4983549999999	1316.987834	-112.446578	641.790454	1280.11301	-56.24804	614.941623	1193.100157	-16.969071	571.484775	1174.976416	-82.608081	681.110914	1384.781034	-655.081048	607.133118	1315.756183	-662.409546	657.364387	1285.806817	-720.078571	650.853985	1209.636918	-769.736509	583.967696	1186.200644	-733.627843	648.162335	1118.388723	-7.137662	779.511661	972.4905659999999	-64.780024	724.263431	942.310068	-32.558961	716.045117	1108.36038	-728.667267	789.448854	1035.112112	-607.223089	755.598361	994.507717	-647.948366	742.461442	971.885401	-463.744537	
